<svg width="1024" height="1024" viewBox="0 0 1024 1024" fill="none" xmlns="http://www.w3.org/2000/svg">
<rect width="1024" height="1024" fill="white"/>
<g clip-path="url(#clip0_2014_63)">
<path d="M358.12 195.847C412.748 215.127 412.748 215.127 438.317 225.038C441.187 226.144 444.057 227.25 447.014 228.389C456.205 231.933 465.392 235.485 474.579 239.038C480.983 241.51 487.386 243.981 493.79 246.451C503.495 250.196 513.2 253.94 522.904 257.688C543.537 265.654 564.184 273.585 584.841 281.486C589.956 283.444 595.07 285.403 600.184 287.361C607.371 290.113 614.558 292.863 621.749 295.606C628.254 298.087 634.756 300.578 641.257 303.071C643.167 303.797 645.077 304.523 647.046 305.271C659.965 310.239 659.965 310.239 663.082 313.355C663.352 318.524 663.423 323.704 663.418 328.88C663.424 333.936 663.424 333.936 663.43 339.093C663.42 342.862 663.41 346.631 663.399 350.4C663.399 354.342 663.399 358.284 663.401 362.226C663.402 372.96 663.385 383.694 663.366 394.428C663.348 405.634 663.346 416.84 663.343 428.046C663.334 449.28 663.311 470.514 663.283 491.749C663.252 515.917 663.237 540.085 663.223 564.254C663.193 613.983 663.144 663.713 663.082 713.443C603.365 737.417 603.365 737.417 576.732 747.552C574.185 748.526 571.639 749.499 569.015 750.502C560.911 753.6 552.805 756.691 544.699 759.781C533.183 764.176 521.668 768.574 510.153 772.973C507.278 774.071 504.402 775.169 501.44 776.3C481.976 783.739 462.539 791.244 443.115 798.787C438.039 800.754 432.964 802.721 427.889 804.688C420.678 807.482 413.47 810.28 406.268 813.094C399.71 815.656 393.145 818.201 386.579 820.743C384.653 821.501 382.727 822.259 380.743 823.04C372.746 826.12 366.776 828.153 358.12 828.153C358.12 619.492 358.12 410.831 358.12 195.847Z" fill="#26125B"/>
<path d="M386.098 349.727C426.694 349.38 426.694 349.38 468.109 349.027C476.593 348.925 485.077 348.823 493.817 348.718C500.625 348.686 507.433 348.657 514.24 348.634C517.707 348.576 521.175 348.519 524.747 348.46C551.02 348.45 575.303 351.67 595.584 369.661C614.135 390.263 622.208 414.232 621.88 441.497C619.747 466.449 607.551 483.476 590.339 500.809C588.088 503.117 585.838 505.425 583.519 507.803C582.076 509.188 580.634 510.573 579.147 512C580.738 512.75 582.328 513.5 583.967 514.273C606.435 525.676 621.038 539.537 630.732 563.06C638.277 586.946 638.6 607.395 628.109 630.382C612.891 657.492 591.889 670.961 562.36 679.869C548.365 681.607 534.61 681.512 520.524 681.235C517.093 681.221 513.662 681.207 510.127 681.192C497.461 681.12 484.796 680.924 472.131 680.743C443.74 680.454 415.349 680.166 386.098 679.869C386.098 570.922 386.098 461.975 386.098 349.727Z" fill="#F7F7F9"/>
<path d="M419.672 525.989C438.44 525.796 457.205 525.629 475.973 525.528C482.353 525.486 488.733 525.429 495.113 525.356C504.301 525.254 513.489 525.206 522.678 525.169C525.514 525.126 528.35 525.083 531.273 525.038C556.177 525.032 572.231 531.087 590.339 548.372C602.734 565.469 604.444 586.566 601.53 607.126C593.711 625.912 582.808 641.003 563.862 649.321C550.128 652.888 537.08 652.58 522.951 652.437C518.515 652.425 518.515 652.425 513.99 652.413C504.583 652.382 495.177 652.312 485.77 652.24C479.377 652.212 472.984 652.187 466.59 652.164C450.95 652.107 435.312 651.998 419.672 651.891C419.672 610.343 419.672 568.796 419.672 525.989Z" fill="#28145C"/>
<path d="M419.672 380.503C438.442 380.181 457.203 379.903 475.973 379.734C482.353 379.664 488.733 379.569 495.113 379.447C504.302 379.277 513.487 379.198 522.678 379.137C525.514 379.064 528.35 378.992 531.273 378.918C550.107 378.91 559.484 381.781 573.552 394.492C588.732 414.466 589.195 431.593 587.541 456.044C583.75 471.988 574.372 485.012 561.137 494.514C545.438 502.172 529.387 501.179 512.295 501.082C509.944 501.079 507.593 501.076 505.171 501.073C496.431 501.059 487.691 501.02 478.951 500.984C449.608 500.897 449.608 500.897 419.672 500.809C419.672 461.108 419.672 421.407 419.672 380.503Z" fill="#26125B"/>
</g>
<defs>
<clipPath id="clip0_2014_63">
<rect width="307.76" height="632.306" fill="white" transform="translate(358.12 195.847)"/>
</clipPath>
</defs>
</svg>
